<svg xmlns="http://www.w3.org/2000/svg" height="24" viewBox="0 96 960 960" width="24"><path d="M160 776h640V376H160v400Zm0 80q-33 0-56.5-23.5T80 776V376q0-33 23.5-56.5T160 296h640q33 0 56.5 23.5T880 376v400q0 33-23.5 56.5T800 856H160Zm280-360h80v-80h-80v80Zm0 120h80v-80h-80v80ZM320 496h80v-80h-80v80Zm0 120h80v-80h-80v80Zm-120 0h80v-80h-80v80Zm0-120h80v-80h-80v80Zm160 240h240q17 0 28.5-11.5T640 696q0-17-11.5-28.5T600 656H360q-17 0-28.5 11.5T320 696q0 17 11.5 28.5T360 736Zm200-120h80v-80h-80v80Zm0-120h80v-80h-80v80Zm120 120h80v-80h-80v80Zm0-120h80v-80h-80v80ZM160 776V376v400Z"/></svg>